<svg id="Group_19982" data-name="Group 19982" xmlns="http://www.w3.org/2000/svg" xmlns:xlink="http://www.w3.org/1999/xlink" width="807.883" height="566.542" viewBox="0 0 807.883 566.542">
  <defs>
    <clipPath id="clip-path">
      <rect id="Rectangle_2773" data-name="Rectangle 2773" width="807.883" height="566.542" fill="none"/>
    </clipPath>
    <clipPath id="clip-path-3">
      <rect id="Rectangle_2770" data-name="Rectangle 2770" width="20.159" height="20.159" fill="none"/>
    </clipPath>
    <clipPath id="clip-path-4">
      <rect id="Rectangle_2771" data-name="Rectangle 2771" width="20.159" height="20.16" fill="none"/>
    </clipPath>
  </defs>
  <g id="Group_19981" data-name="Group 19981" clip-path="url(#clip-path)">
    <g id="Group_19980" data-name="Group 19980">
      <g id="Group_19979" data-name="Group 19979" clip-path="url(#clip-path)">
        <path id="Path_28843" data-name="Path 28843" d="M37.806,139.877c28.751-61.985,96.4-182.9,236.355-75.6,99.078,75.963,168.455,69.162,206.054,24.345,56.966-67.908,127.268-126.848,220.6-57.659,177.6,131.663,102.424,259.267,2.786,380.391C609.887,525.283-179.943,609.337,37.806,139.877" transform="translate(0 0)" fill="#e0fffe"/>
        <path id="Path_28844" data-name="Path 28844" d="M209.246,344.786c-.892-5.795.223-14.041-9.806-17.162s-33.434-1.116-30.091-17.608,24.295,1.559,25.631.445-14.264-14.487-3.788-19.837,26.523,19.837,26.746,33.878a110.811,110.811,0,0,1-1.783,23.183Z" transform="translate(62.466 107.133)" fill="#00a026"/>
        <path id="Path_28845" data-name="Path 28845" d="M227.031,341.521s-4.683-24.963,12.482-41.458,35.661-1.56,27.413,8.471-24.071,5.128-27.413,14.265-8.026,19.614-8.026,19.614Z" transform="translate(83.687 108.169)" fill="#00a026"/>
        <path id="Path_28846" data-name="Path 28846" d="M225.016,363.363s4.013-23.848-8.247-41.012-31.427-28.973-41.457-38.112-20.507-20.06,1.115-37.668,45.693,51.709,49.926,50.818-4.235-68.428,19.168-62.185-2.228,51.708,1.115,54.606,17.162-53.046,35.885-38.557-20.73,42.57-30.759,59.287-12.7,52.379-12.7,52.379Z" transform="translate(60.517 86.772)" fill="#00a026"/>
        <path id="Path_28847" data-name="Path 28847" d="M191.467,307.113c.3.515.422.872.248,1.018-.14.116-.5.015-1.02-.223-4.433,4.554-8.658,9.364-12.829,14.057,6.342,1.542,13.722,1.9,18.307,3.329,10.031,3.12,8.916,11.367,9.806,17.162l6.911,2.9a110.88,110.88,0,0,0,1.782-23.183c-.121-7.6-4.878-18.455-10.878-25.977a108.352,108.352,0,0,0-12.326,10.918" transform="translate(65.733 109.463)" fill="#00871d"/>
        <path id="Path_28848" data-name="Path 28848" d="M242.606,296.156a32.744,32.744,0,0,0-3.092,2.628c-17.163,16.494-12.482,41.457-12.482,41.457l4.458.893s4.68-10.477,8.024-19.615c2.324-6.356,10.688-5.923,18.34-8.442a113.322,113.322,0,0,0-15.247-16.921" transform="translate(83.687 109.449)" fill="#00871d"/>
        <path id="Path_28849" data-name="Path 28849" d="M211.482,290.787a56.772,56.772,0,0,0-12.318,6.294c1.578,1.848,3.1,3.755,4.517,5.741,12.26,17.163,8.247,41.012,8.247,41.012l14.041-.447s2.675-35.662,12.705-52.378c.114-.192.236-.385.359-.578-8.226-3.5-17.373-4.07-27.552.355" transform="translate(73.604 106.301)" fill="#00871d"/>
        <path id="Path_28850" data-name="Path 28850" d="M180.2,307.611a86.81,86.81,0,0,1,12.866,2.05,41.652,41.652,0,0,1,6.214,2.009,15.863,15.863,0,0,1,5.495,3.547,8.086,8.086,0,0,1,1.65,2.856,23,23,0,0,1,.933,3.14,48.3,48.3,0,0,1,.994,6.451,97.35,97.35,0,0,1,.231,13.029.09.09,0,0,1-.093.086.094.094,0,0,1-.086-.1,97.239,97.239,0,0,0-.33-12.992,48.19,48.19,0,0,0-1.037-6.4,22.386,22.386,0,0,0-.944-3.087,7.649,7.649,0,0,0-1.6-2.728,15.6,15.6,0,0,0-5.351-3.481,41.371,41.371,0,0,0-6.153-2.026,97.316,97.316,0,0,0-12.815-2.178.088.088,0,0,1-.078-.1.09.09,0,0,1,.1-.079Z" transform="translate(66.558 113.682)"/>
        <path id="Path_28851" data-name="Path 28851" d="M228.11,338.718a67.846,67.846,0,0,1,1.531-11.637,54.192,54.192,0,0,1,3.643-11.163,28.089,28.089,0,0,1,6.9-9.462,18.689,18.689,0,0,1,5.007-3.09,20.239,20.239,0,0,1,5.734-1.287.09.09,0,0,1,.1.082.093.093,0,0,1-.085.1,20.038,20.038,0,0,0-5.641,1.364,18.532,18.532,0,0,0-4.909,3.072,27.74,27.74,0,0,0-6.763,9.386,54.089,54.089,0,0,0-3.679,11.07,75.671,75.671,0,0,0-1.66,11.574.089.089,0,0,1-.092.088.091.091,0,0,1-.088-.093" transform="translate(84.301 111.637)"/>
        <path id="Path_28852" data-name="Path 28852" d="M188.391,298.035a68.245,68.245,0,0,1,8.028,9.781,55.48,55.48,0,0,1,3.168,5.492,31.287,31.287,0,0,1,2.2,5.943.091.091,0,0,1-.066.11.093.093,0,0,1-.11-.064,37.01,37.01,0,0,0-2.306-5.848,54.986,54.986,0,0,0-3.2-5.421q-1.748-2.621-3.72-5.089c-1.32-1.635-2.682-3.243-4.12-4.776a.09.09,0,0,1,0-.127.093.093,0,0,1,.127,0" transform="translate(69.566 110.134)"/>
        <path id="Path_28853" data-name="Path 28853" d="M182.689,262.551A206.439,206.439,0,0,1,201.678,280.7c5.888,6.463,11.476,13.337,15.476,21.176a62.561,62.561,0,0,1,4.421,12.378,113.732,113.732,0,0,1,2.557,12.89,181.244,181.244,0,0,1,1.83,26.2.089.089,0,0,1-.09.089.091.091,0,0,1-.089-.092,181.057,181.057,0,0,0-1.927-26.153,113.757,113.757,0,0,0-2.6-12.848,62.212,62.212,0,0,0-4.443-12.293c-3.947-7.794-9.49-14.683-15.343-21.154a206.281,206.281,0,0,0-18.895-18.195.091.091,0,0,1-.015-.127.093.093,0,0,1,.129-.012" transform="translate(67.461 97.022)"/>
        <path id="Path_28854" data-name="Path 28854" d="M214.94,319.6q9.964-16.895,20.275-33.582c3.487-5.532,6.981-11.059,10.6-16.507a171.566,171.566,0,0,1,11.488-15.9.089.089,0,0,1,.126-.01.1.1,0,0,1,.007.131,171.331,171.331,0,0,0-11.387,15.932c-3.588,5.463-7.053,11.007-10.509,16.554q-10.407,16.622-20.444,33.474a.09.09,0,0,1-.155-.092" transform="translate(79.43 93.714)"/>
        <path id="Path_28855" data-name="Path 28855" d="M223.878,242.118c-.781,5.751-1.661,11.441-2.49,17.165l-2.5,17.15-2.5,17.148c-.778,5.721-1.635,11.443-2.1,17.191a.09.09,0,0,1-.092.089.1.1,0,0,1-.088-.1c.433-5.771,1.257-11.492,2-17.221l2.4-17.165,5.182-34.26,0-.025a.09.09,0,0,1,.1-.075.088.088,0,0,1,.075.1" transform="translate(79.129 89.441)"/>
        <path id="Path_28856" data-name="Path 28856" d="M178.719,329.4c2.408-2.272,99.641-4.011,102.474-1.338S269.86,441.731,269.86,443.96s-76.974,2.676-76.974,0S174.7,333.185,178.719,329.4" transform="translate(65.834 120.739)" fill="#0088f6"/>
        <path id="Path_28857" data-name="Path 28857" d="M246.766,389.436c-22.3,6.5-43.3-3.129-63.466-14.1,3.785,25.6,7.679,49.417,7.679,50.653,0,2.676,76.974,2.23,76.974,0,0-.982,2.746-23.054,5.58-47.68a144.367,144.367,0,0,1-26.767,11.128" transform="translate(67.741 138.711)" fill="#0075c4"/>
        <path id="Path_28858" data-name="Path 28858" d="M287.11,206.107c11.11-20.153,26.3,3.565,32.1,3.565s4.9-21.4,27.638-14.71,12.034,32.1,15.6,36.11-3.568,5.348-24.073,10.7-70.431-.892-51.263-35.662" transform="translate(104.517 71.573)" fill="#00a026"/>
        <path id="Path_28859" data-name="Path 28859" d="M383.055,256.33c-5.738-1.564-10.72-22.969-21.576-25.636s-63.316.545-48.657-53.525,43.859-28.1,46.63-31.259-6.8-13.75,13.615-22.628,18.808,12.091,21.593,11.64,11.184-43.8,54.533-15.975,12.7,41.354,14.7,45.743,24.788-13.585,31.833,6.981-10.557,17.706-11.5,20.713,19.255,31.582-13.62,39.335-50.638.351-59.191,5.736-20.142,21.11-28.358,18.874" transform="translate(114.66 40.518)" fill="#00a026"/>
        <path id="Path_28860" data-name="Path 28860" d="M337.035,207.431c-13.374,12.036-26.746,21.4-44.132,10.7a25.36,25.36,0,0,1-8.682-9.614c-9.9,29.1,34.98,34.228,54.15,29.229,20.505-5.35,27.639-6.688,24.073-10.7-1.285-1.445-.72-5.667-.533-10.789-8.178-6.59-17-16.7-24.877-8.825" transform="translate(104.518 75.597)" fill="#00871d"/>
        <path id="Path_28861" data-name="Path 28861" d="M487.986,185.029a26.3,26.3,0,0,1-19.337,4.258c-13.374-2.675-17.83-11.591-24.517-23.626-4.013-6.909-12.036-4.9-14.712-.223-4.235,7.578-4.9,17.162-11.589,18.5-13.374,4.011-20.06-12.037-28.084-20.06-5.35-8.024-17.385-4.013-20.06,5.35-2.675-4.013-8.024-8.024-13.374-6.688-10.7,2.675-12.036,18.723-24.071,16.049-8.86-2.215-16.081-8.917-20.105-17.173-12.2,51.261,38.668,48.2,49.34,50.825,10.858,2.668,15.839,24.073,21.577,25.637,8.216,2.237,19.8-13.49,28.358-18.875s26.318,2.019,59.191-5.734c20.989-4.95,20.345-18.385,17.383-28.238" transform="translate(114.661 58.973)" fill="#00871d"/>
        <path id="Path_28862" data-name="Path 28862" d="M328.935,316.455c1.263-5.711,102.181-5.793,104.583-1.449s-16.027,136.255-19.233,136.255h-67.32c-3.606,0-19.633-127.561-18.03-134.806" transform="translate(121.521 115.281)" fill="#e85f3a"/>
        <path id="Path_28863" data-name="Path 28863" d="M427.229,375.916c4.15-30.425,7.386-58.927,6.29-60.91-2.4-4.344-103.321-4.261-104.584,1.449-.714,3.229,2.075,30.361,5.7,59.443,30.271-8.361,61.556-5.948,92.589.018" transform="translate(121.522 115.281)" fill="#d85030"/>
        <path id="Path_28864" data-name="Path 28864" d="M322.1,229.893c1.337-2.228,17.385,2.673,25.855,6.241s17.83,12.481,18.722,10.251,4.011-10.7,6.241-13.819,15.6-22.288,16.494-27.191,4.013-25.408,5.8-25.408c1.335,0,0,19.167-1.783,25.853s-6.307,18.947-13.04,32.765c-6.353,13.038-1.672,25.185,1,32.764s13.374,23.626,16.939,34.325,9.807,35.662,9.807,35.662l-28.977-1.783s-1.337-16.049-3.118-24.519-7.133-20.5-8.024-32.54-.892-26.746-4.013-29.421-13.374-12.037-20.059-14.267-23.181-6.688-21.843-8.914" transform="translate(119.008 66.509)" fill="#d34a13"/>
        <path id="Path_28865" data-name="Path 28865" d="M323.991,296.227c1.831-2.565,120.359-1.338,122.588.892s-.445,38.782-3.12,40.565-117.24,1.783-118.577,0-3.12-38.337-.892-41.457" transform="translate(119.345 108.944)" fill="#fc7857"/>
        <path id="Path_28866" data-name="Path 28866" d="M313.16,167.006a27.533,27.533,0,0,0-.648,14.265,23.022,23.022,0,0,0,7.66,11.925,38.623,38.623,0,0,0,12.6,6.92,58.063,58.063,0,0,0,14.175,2.861.106.106,0,0,1-.015.211,54.667,54.667,0,0,1-14.278-2.723,39.038,39.038,0,0,1-12.771-6.93,23.4,23.4,0,0,1-7.728-12.175,26.959,26.959,0,0,1,.8-14.416.106.106,0,0,1,.133-.07.107.107,0,0,1,.07.131" transform="translate(115.122 61.669)"/>
        <path id="Path_28867" data-name="Path 28867" d="M287.413,203.8a31.951,31.951,0,0,0-2.336,9.866,18.02,18.02,0,0,0,2.1,9.765,20.631,20.631,0,0,0,6.963,7.219,38.656,38.656,0,0,0,9.25,4.21.106.106,0,1,1-.06.2,35.792,35.792,0,0,1-9.39-4.1,21.026,21.026,0,0,1-7.155-7.315,18.377,18.377,0,0,1-2.082-10,29.956,29.956,0,0,1,2.512-9.928.106.106,0,0,1,.138-.056.109.109,0,0,1,.056.138" transform="translate(105.203 75.262)"/>
        <path id="Path_28868" data-name="Path 28868" d="M350.46,195.844a14.557,14.557,0,0,1,4.335,2.237,14.193,14.193,0,0,1,3.294,3.6.106.106,0,0,1-.173.122,17.53,17.53,0,0,0-3.392-3.362,18.471,18.471,0,0,0-4.136-2.394.106.106,0,0,1,.073-.2" transform="translate(129.467 72.375)"/>
        <path id="Path_28869" data-name="Path 28869" d="M336.2,201.754a14.628,14.628,0,0,1,1.367,3.469,15.377,15.377,0,0,1,.427,3.7.107.107,0,0,1-.111.1.106.106,0,0,1-.1-.092,24.729,24.729,0,0,0-.648-3.606,23.924,23.924,0,0,0-1.124-3.486.1.1,0,0,1,.06-.137.107.107,0,0,1,.13.045" transform="translate(124.174 74.542)"/>
        <path id="Path_28870" data-name="Path 28870" d="M338.284,164.2a8.239,8.239,0,0,1,1.386-4.554,5.286,5.286,0,0,1,.82-.905,7.608,7.608,0,0,1,1.015-.69,5.632,5.632,0,0,1,2.372-.56,8.309,8.309,0,0,1,4.554,1.463,12.7,12.7,0,0,1,3.4,3.344.1.1,0,0,1-.023.136.1.1,0,0,1-.133-.022,14.176,14.176,0,0,0-3.424-3.176,7.955,7.955,0,0,0-4.365-1.338,5.331,5.331,0,0,0-2.215.489,5.036,5.036,0,0,0-1.731,1.463,8.678,8.678,0,0,0-1.463,4.361.1.1,0,0,1-.1.09.1.1,0,0,1-.09-.1" transform="translate(125.018 58.201)"/>
        <path id="Path_28871" data-name="Path 28871" d="M397.526,184.985a12.345,12.345,0,0,1,4.22-4.888,10.254,10.254,0,0,1,12.273.541,12.09,12.09,0,0,1,3.761,5.248.1.1,0,0,1-.062.136.108.108,0,0,1-.136-.058,12.664,12.664,0,0,0-3.791-5.037,10.215,10.215,0,0,0-11.844-.52,13.027,13.027,0,0,0-4.233,4.674.1.1,0,0,1-.142.045.108.108,0,0,1-.045-.141" transform="translate(146.908 65.9)"/>
        <path id="Path_28872" data-name="Path 28872" d="M347.726,154.715a12.354,12.354,0,0,1,4.218-4.888,10.256,10.256,0,0,1,12.274.541,12.089,12.089,0,0,1,3.761,5.248.1.1,0,0,1-.062.136.107.107,0,0,1-.136-.058,12.65,12.65,0,0,0-3.791-5.036,10.212,10.212,0,0,0-11.844-.522,13.027,13.027,0,0,0-4.233,4.674.105.105,0,0,1-.142.045.108.108,0,0,1-.045-.141" transform="translate(128.503 54.714)"/>
        <path id="Path_28873" data-name="Path 28873" d="M412.516,169.453a2.933,2.933,0,0,1,1.978-1.046,3.51,3.51,0,0,1,2.157.582.107.107,0,0,1-.1.188,4.254,4.254,0,0,0-2.02-.325,3.323,3.323,0,0,0-1.868.752.108.108,0,0,1-.149-.022.107.107,0,0,1,0-.129" transform="translate(152.443 62.236)"/>
        <path id="Path_28874" data-name="Path 28874" d="M414.218,202.807c3.483-.1,6.966-.136,10.432-.379a44.868,44.868,0,0,0,10.225-1.756,16.505,16.505,0,0,0,8.549-5.485,17.452,17.452,0,0,0,3.232-9.664.106.106,0,0,1,.11-.1.11.11,0,0,1,.1.11,17.114,17.114,0,0,1-3.153,9.88,16.912,16.912,0,0,1-8.7,5.686,45.012,45.012,0,0,1-10.335,1.7c-3.486.236-6.974.222-10.455.222a.105.105,0,0,1,0-.211" transform="translate(153.042 68.525)"/>
        <path id="Path_28875" data-name="Path 28875" d="M436.4,166.829a7.849,7.849,0,0,0,9.68-2.2.106.106,0,0,1,.163.134,7.357,7.357,0,0,1-9.933,2.258.106.106,0,0,1,.09-.192" transform="translate(161.223 60.828)"/>
        <path id="Path_28876" data-name="Path 28876" d="M348.212,138.518a16.158,16.158,0,0,1,.448-10.313.107.107,0,0,1,.138-.058.1.1,0,0,1,.062.126,20.766,20.766,0,0,0-.823,5.07,21.215,21.215,0,0,0,.381,5.125.106.106,0,0,1-.085.123.107.107,0,0,1-.121-.074" transform="translate(128.455 47.356)"/>
        <path id="Path_28877" data-name="Path 28877" d="M374.732,132.484a29.718,29.718,0,0,1,1.848-7.042,30.562,30.562,0,0,1,3.518-6.374.106.106,0,0,1,.175.119,38.163,38.163,0,0,0-3.28,6.421,37.41,37.41,0,0,0-2.053,6.911.1.1,0,0,1-.125.082.107.107,0,0,1-.084-.116" transform="translate(138.488 43.987)"/>
        <path id="Path_28878" data-name="Path 28878" d="M352.439,231.986a47.2,47.2,0,0,1,11.645,11.174,62.7,62.7,0,0,1,7.56,14.282.107.107,0,0,1-.062.137.1.1,0,0,1-.134-.058,68.042,68.042,0,0,0-7.726-14.1,50.221,50.221,0,0,0-11.406-11.266.1.1,0,0,1-.023-.147.107.107,0,0,1,.145-.026" transform="translate(130.188 85.727)"/>
        <path id="Path_28879" data-name="Path 28879" d="M358.986,263.935a33.542,33.542,0,0,0,5.869,9.236,102.477,102.477,0,0,0,7.686,7.9c2.658,2.543,5.381,5.025,8.022,7.6a65.1,65.1,0,0,1,7.386,8.23.105.105,0,1,1-.17.125,74.666,74.666,0,0,0-7.472-8.09c-2.653-2.549-5.392-5.01-8.074-7.538a101.84,101.84,0,0,1-7.66-7.982,31.631,31.631,0,0,1-5.785-9.4.1.1,0,0,1,.063-.136.107.107,0,0,1,.136.063" transform="translate(132.593 97.515)"/>
        <path id="Path_28880" data-name="Path 28880" d="M326.075,333.147c-.644-5.1-1.085-10.222-1.444-15.351-.278-5.134-.477-10.277-.34-15.419a.106.106,0,0,1,.212,0c.063,5.134.212,10.268.572,15.388.279,5.128.77,10.24,1.209,15.358a.106.106,0,0,1-.211.022" transform="translate(119.831 111.71)"/>
        <path id="Path_28881" data-name="Path 28881" d="M396.214,387.2c1.724-9.546,3.42-19.1,4.88-28.684,1.538-9.576,2.84-19.188,4.035-28.813a.105.105,0,0,1,.118-.092.107.107,0,0,1,.092.116c-.994,9.653-2.347,19.264-3.8,28.858-1.539,9.58-3.187,19.144-5.113,28.654a.106.106,0,0,1-.208-.04" transform="translate(146.426 121.814)"/>
        <path id="Path_28882" data-name="Path 28882" d="M342.933,411.91c10.616-.6,21.247-.894,31.881-1.016,10.631-.014,21.28.068,31.881,1.016a.106.106,0,0,1-.018.211c-5.3-.39-10.609-.582-15.92-.707s-10.626-.123-15.939-.073c-10.628.041-21.253.386-31.875.779a.105.105,0,0,1-.11-.1.107.107,0,0,1,.1-.11" transform="translate(126.699 151.851)"/>
        <path id="Path_28883" data-name="Path 28883" d="M196.561,170.255c23.159-41.8,111.888-7.133,80.685,55.277s-117.239,10.7-80.685-55.277" transform="translate(69.358 56.161)" fill="#98cf70"/>
        <path id="Path_28884" data-name="Path 28884" d="M288.623,234.547c12.852-23.195,62.086-3.958,44.774,30.673s-65.057,5.937-44.774-30.673" transform="translate(104.843 82.929)" fill="#98cf70"/>
        <path id="Path_28885" data-name="Path 28885" d="M240.536,65.272c31.18-56.277,150.636-9.6,108.627,74.417S191.325,154.094,240.536,65.272" transform="translate(84.473 15.022)" fill="#98cf70"/>
        <path id="Path_28886" data-name="Path 28886" d="M273.48,166.454c-2.621,19.959-7.218,42.828-27,47.48-21.9,3.981-44.534-5.381-58.539-22.559-5.024,51.693,62.443,82.512,89.3,28.8,11.058-22.116,7.046-40.742-3.764-53.721" transform="translate(69.359 61.516)" fill="#84bf5a"/>
        <path id="Path_28887" data-name="Path 28887" d="M286.5,235.013c-14.349,34.432,30.274,59.517,46.891,26.283a33,33,0,0,0,3.54-11.874,25.55,25.55,0,0,1-8.25,4.7c-17.955,4.988-34.417-3.421-42.181-19.114" transform="translate(104.846 86.853)" fill="#84bf5a"/>
        <path id="Path_28888" data-name="Path 28888" d="M274.162,126c-21.731-6.337-36.1-21.877-45.19-40.8-7.057,69.775,83.979,111.5,120.187,39.078,7.685-15.371,9.95-29.484,8.356-41.954-22.151,25.709-43.874,54.061-83.353,43.671" transform="translate(84.476 30.426)" fill="#84bf5a"/>
        <path id="Path_28889" data-name="Path 28889" d="M229.653,236.233c1.312-1.967,47.475,42.125,47.809,40.788s0-46.806.334-75.225,4.013-99.3,6.353-99.3-.668,58.842-1,97.291,5.684,131.726,7.69,131.726,37.445-37.445,39.452-35.774S292.173,334.526,291.84,338.2s2.452,108.435,2.452,108.435H280.026s.89-88.709,0-105.2-1.337-57.505-3.121-59.288-49.035-43.243-47.251-45.916" transform="translate(84.854 37.88)" fill="#cc4e1d"/>
        <path id="Path_28890" data-name="Path 28890" d="M190.692,194.952a44.7,44.7,0,0,0,14.961,27.43,45.42,45.42,0,0,0,13.487,8.363,40.9,40.9,0,0,0,15.6,2.914.087.087,0,1,1,0,.174,41.091,41.091,0,0,1-15.7-2.835,45.764,45.764,0,0,1-13.634-8.341,44.92,44.92,0,0,1-14.89-27.683.088.088,0,0,1,.077-.1.086.086,0,0,1,.1.075" transform="translate(70.409 72.019)"/>
        <path id="Path_28891" data-name="Path 28891" d="M292.861,262.084a25.042,25.042,0,0,0,17.777,4.677,20.329,20.329,0,0,0,8.753-3.158,20.1,20.1,0,0,0,6.329-6.84.088.088,0,0,1,.153.085,19.461,19.461,0,0,1-6.314,7.008,20.656,20.656,0,0,1-8.875,3.271,24.81,24.81,0,0,1-17.929-4.9.089.089,0,0,1-.016-.123.091.091,0,0,1,.122-.016" transform="translate(108.179 94.874)"/>
        <path id="Path_28892" data-name="Path 28892" d="M235.924,113.873A66.535,66.535,0,0,0,250.18,130.81a70.253,70.253,0,0,0,18.87,11.563,63.724,63.724,0,0,0,21.557,4.893,59.344,59.344,0,0,0,21.886-3.12.087.087,0,1,1,.058.164,59.549,59.549,0,0,1-21.956,3.228,64.078,64.078,0,0,1-21.686-4.825A70.4,70.4,0,0,1,250,131.018a66.738,66.738,0,0,1-14.23-17.058.087.087,0,0,1,.033-.119.086.086,0,0,1,.119.032" transform="translate(87.129 42.067)"/>
        <path id="Path_28893" data-name="Path 28893" d="M228.373,353.876c1.4-3.512,113.674-3.565,116.346-.89s-17.83,83.8-21.4,83.8H248.431c-4.013,0-21.842-78.457-20.059-82.913" transform="translate(84.352 129.753)" fill="#ffa90d"/>
        <path id="Path_28894" data-name="Path 28894" d="M338.441,387.51c4.262-17.572,7.434-33.371,6.279-34.525-2.675-2.675-114.943-2.621-116.349.89-.56,1.4.819,10.122,3.1,21.416,28.675,23.455,70.546,24.68,106.971,12.219" transform="translate(84.352 129.753)" fill="#ffc332"/>
        <path id="Path_28895" data-name="Path 28895" d="M233.893,361.465c17.162-.573,34.334-.964,51.508-.986,8.587.021,17.174.137,25.757.415s17.163.705,25.719,1.463a.087.087,0,1,1-.015.174c-8.553-.724-17.132-1.118-25.712-1.365s-17.165-.33-25.749-.318c-17.169-.036-34.339.285-51.5.793a.088.088,0,0,1-.005-.175" transform="translate(86.407 133.22)"/>
        <path id="Path_28896" data-name="Path 28896" d="M454.773,398.359c.241,2.172,3.618,21.231,1.446,21.231H398.561c-3.859,0,15.439-7,25.573-10.376s16.646-6.514,17.37-7.237,1.931-4.341,1.931-4.341Z" transform="translate(147.108 146.952)" fill="#00365b"/>
        <path id="Path_28897" data-name="Path 28897" d="M560.937,379.926c-.456.686,1.375,23.121.457,23.121s-12.13,8.925-10.07,8.925,26.555.914,29.759.914-3.435-48.984-8.242-50.588c-3.794-1.264-12.592,3.664-12.592,3.664Z" transform="translate(203.657 133.816)" fill="#00365b"/>
        <path id="Path_28898" data-name="Path 28898" d="M443.033,442.06s-56.39-99.852-53.716-115.009,72.439-44.8,97.849-42.572,33.209,62.3,33.209,62.3-82.244-10.811-86.7-5.908,13.374,10.7,18.723,32.1,7.131,69.541,7.131,69.541Z" transform="translate(143.844 105.09)" fill="#0075c4"/>
        <path id="Path_28899" data-name="Path 28899" d="M437.9,417.208l16.494.445s-1.2-32.341-4.577-55.791a394.554,394.554,0,0,1-46.712-10.257c15.486,31.408,34.8,65.6,34.8,65.6" transform="translate(148.974 129.941)" fill="#006ca8"/>
        <path id="Path_28900" data-name="Path 28900" d="M473.2,286.756c-3.354,2.584.42-.753,0,0-19.95,35.662,15.378,56.167,18.386,59.176s59.178-32.43,58.175-38.114c-.282-1.589-1.793-4.7-3.836-8.423-29.758,6.935-49.959,7.7-72.725-12.64" transform="translate(172.633 105.933)" fill="#0088f7"/>
        <path id="Path_28901" data-name="Path 28901" d="M559.66,395.471c-11.037,6.089-13.6,12.036-14.265,10.7s4.458-64.86,2.786-78.9-3.344-21.063-5.015-25.075-59.51,30.425-58.175,38.115c2.058,11.825,18.182,112.756,38.563,113.56,14.152.559,15.09-3.364,36.107-23.18,15.6-14.712,27.771-25,32.538-30.089-1-2.741-4.144-13.2-5.792-15.38-8.471,2.675-13.82,3.121-26.746,10.254" transform="translate(179.227 111.56)" fill="#0088f7"/>
        <path id="Path_28902" data-name="Path 28902" d="M573.052,362.726c-7.838,2.475-13.015,3.053-23.984,8.773-5.443,21.882-12.314,43.763-27.964,58.541,6.06-2.445,11.135-8.583,25.2-21.845,15.6-14.712,27.771-25,32.539-30.089-1-2.741-4.146-13.2-5.793-15.38" transform="translate(192.582 134.051)" fill="#0075c4"/>
        <path id="Path_28903" data-name="Path 28903" d="M485.378,338.814a50.691,50.691,0,0,1-2.264-9.579c-.486-3.249-.794-6.521-1-9.8-.341-6.555-.353-13.119-.085-19.67a.1.1,0,0,1,.11-.1.105.105,0,0,1,.1.107c-.066,6.551-.1,13.105.319,19.638.186,3.266.462,6.53.922,9.768a57.957,57.957,0,0,0,2.1,9.562.106.106,0,0,1-.2.07" transform="translate(178.072 110.747)"/>
        <path id="Path_28904" data-name="Path 28904" d="M467.044,295.173a40.887,40.887,0,0,0,9.206,12.579,67.6,67.6,0,0,0,12.666,9.2c9.049,5.306,18.888,9.062,28.449,13.378a.106.106,0,0,1-.086.194c-9.632-4.128-19.459-7.931-28.587-13.186a67.639,67.639,0,0,1-12.7-9.324,39.547,39.547,0,0,1-9.145-12.76.106.106,0,0,1,.193-.086" transform="translate(172.529 109.062)"/>
        <path id="Path_28905" data-name="Path 28905" d="M469.768,319.03A46.86,46.86,0,0,0,479.234,326a104.425,104.425,0,0,1,9.916,6.455.079.079,0,0,1,.012.112.08.08,0,0,1-.111.015c-3.177-2.323-6.612-4.261-9.994-6.29-3.332-2.083-6.737-4.207-9.408-7.156a.079.079,0,0,1,.005-.114.083.083,0,0,1,.112,0" transform="translate(173.558 117.893)"/>
        <path id="Path_28906" data-name="Path 28906" d="M450.051,195.615c2.576-12.1,18.333-13.874,18.773-17.54s-13.749-12.5-7.375-29.6,16.677-12.516,16.885-13.5-16.448-22.3,15.424-38.76,41.42,12.571,45.156,12.682,12.615-12.7,31.538-5.254,17.7,16.413,18.682,16.624,13.386-11.51,20.594-.405S606.6,134.58,607.044,135.7s13.915-1.142,15.2,12.119-12.67,22.6-12.621,23.977,25.2,3.653,18.375,30.912-15.712,19.218-17.18,21.3,6.868,17.526-11.166,28.39-21.039-.716-23.28.173S570.455,264.3,559.2,262.589s-18.445-14.522-21.128-14.752-4.594,5.518-10.27,3.284-6.875-6.248-9.1-7.06-13.492,3.965-20.246-1.234-1.865-13.727-4.413-14.609-22.779,7.459-35.469-.368-4.785-16.058-4.785-16.058-5.686-7.02-3.739-16.177" transform="translate(166.173 33.692)"/>
        <path id="Path_28907" data-name="Path 28907" d="M477.251,176.452c9.362-8.024-5.35-22.735,5.35-28.084,8.024-4.011,18.723,1.338,28.084-2.675,9.361-5.35,3.566-13.372,4.9-22.735-1.337-8.914,6.24-11.589,12.482-4.011,7.578,8.024,9.361,14.711,17.385,16.047,14.711,2.676,26.746-9.361,30.758-22.735a24.926,24.926,0,0,0,.533-4.092,50.859,50.859,0,0,0-9.035-4.521c-18.923-7.444-27.8,5.366-31.538,5.254S522.89,79.755,491.018,96.217,475.8,134,475.594,134.977s-10.514-3.6-16.887,13.5,7.813,25.933,7.375,29.6c0,.025-.014.048-.018.073a16.455,16.455,0,0,0,11.187-1.7" transform="translate(168.912 33.692)" fill="#161312"/>
        <path id="Path_28908" data-name="Path 28908" d="M491.633,160.344s1.115-17.385-8.693-13.6-11.369,23.18-4.459,28.306,11.592,3.79,12.482-2.675a76.4,76.4,0,0,0,.67-12.036" transform="translate(175.262 54.034)" fill="#d64625"/>
        <path id="Path_28909" data-name="Path 28909" d="M535.274,164.853s3.891-16.981,12.211-10.551,4.28,25.46-3.8,28.4-12.192.323-11.2-6.125a76.348,76.348,0,0,1,2.794-11.726" transform="translate(196.732 56.487)" fill="#d64625"/>
        <path id="Path_28910" data-name="Path 28910" d="M506.615,230.346s2.676-12.927.892-13.819-9.7-2.341-16.383-12.37c-10.2-15.3-5.682-42.906.781-54.943s16.494-20.06,18.5-19.614,10.031,8.916,11.367,9.138,23.18-7.131,24.073-6.018,13.038,16.165,8.024,47.253c-3.9,24.184-8.247,30.2-17.276,33.211-6.362,2.12-13.483,3.12-14.153,4.458s-2.227,14.932-2.227,14.932Z" transform="translate(179.281 47.889)" fill="#e85f3a"/>
        <path id="Path_28911" data-name="Path 28911" d="M502,193.306c1.15,2.208-1.185,13.492-1.185,13.492l13.6,2.228s1.559-13.6,2.227-14.934a.878.878,0,0,1,.2-.248A72.985,72.985,0,0,1,502,193.306" transform="translate(185.083 71.439)" fill="#d64625"/>
        <g id="Group_19975" data-name="Group 19975" transform="translate(665.691 218.24)" opacity="0.5">
          <g id="Group_19974" data-name="Group 19974">
            <g id="Group_19973" data-name="Group 19973" clip-path="url(#clip-path-3)">
              <path id="Path_28912" data-name="Path 28912" d="M506.219,169.429a10.079,10.079,0,1,1-10.08-10.08,10.08,10.08,0,0,1,10.08,10.08" transform="translate(-486.06 -159.35)" fill="#d64625"/>
            </g>
          </g>
        </g>
        <g id="Group_19978" data-name="Group 19978" transform="translate(709.01 224.458)" opacity="0.5">
          <g id="Group_19977" data-name="Group 19977">
            <g id="Group_19976" data-name="Group 19976" clip-path="url(#clip-path-4)">
              <path id="Path_28913" data-name="Path 28913" d="M537.849,173.97a10.079,10.079,0,1,1-10.079-10.08,10.078,10.078,0,0,1,10.079,10.08" transform="translate(-517.69 -163.89)" fill="#d64625"/>
            </g>
          </g>
        </g>
        <path id="Path_28914" data-name="Path 28914" d="M482.27,148.207a19.363,19.363,0,0,1,2.224,6.288,37.829,37.829,0,0,1,.545,6.656.226.226,0,0,1-.21.222,5.843,5.843,0,0,0-2.81.845,3.633,3.633,0,0,0-1.122,5.143,5.6,5.6,0,0,0,2.216,1.976.1.1,0,0,1,.049.141.108.108,0,0,1-.141.049,5.863,5.863,0,0,1-2.4-1.994,4.1,4.1,0,0,1-.626-3.069,4.158,4.158,0,0,1,1.8-2.582,6.26,6.26,0,0,1,3.009-.95l-.208.221a39.84,39.84,0,0,0-.471-6.592,21.472,21.472,0,0,0-2.042-6.252.105.105,0,0,1,.185-.1" transform="translate(177.362 54.753)"/>
        <path id="Path_28915" data-name="Path 28915" d="M543.958,155.294a21.465,21.465,0,0,0-3.74,5.408,40.064,40.064,0,0,0-2.334,6.184l-.136-.271a6.274,6.274,0,0,1,2.613,1.769,4.163,4.163,0,0,1,.985,2.988,4.113,4.113,0,0,1-1.476,2.762A5.868,5.868,0,0,1,537,175.364a.106.106,0,0,1-.121-.088.109.109,0,0,1,.086-.122,5.6,5.6,0,0,0,2.688-1.261,3.633,3.633,0,0,0,.393-5.25,5.836,5.836,0,0,0-2.453-1.612.226.226,0,0,1-.137-.273,37.939,37.939,0,0,1,2.421-6.223,19.381,19.381,0,0,1,3.925-5.392.106.106,0,0,1,.149.151" transform="translate(198.413 57.325)"/>
        <path id="Path_28916" data-name="Path 28916" d="M505.53,178.647a9.884,9.884,0,0,1-2.686-3.183,9.635,9.635,0,0,1-1.159-4.02,4.032,4.032,0,0,1,.416-2.1,2.094,2.094,0,0,1,1.854-1.105,7.23,7.23,0,0,1,3.9,1.557l-.31.082a25.559,25.559,0,0,0,1.916-7.014c.371-2.416.631-4.862,1.171-7.264a.1.1,0,0,1,.122-.078.1.1,0,0,1,.078.119c-.462,2.4-.66,4.846-1.026,7.275a25.951,25.951,0,0,1-1.88,7.141.209.209,0,0,1-.278.1l-.026-.015-.007,0a7.181,7.181,0,0,0-3.653-1.5,1.692,1.692,0,0,0-1.534.892,3.659,3.659,0,0,0-.389,1.905,9.314,9.314,0,0,0,1.081,3.881,9.728,9.728,0,0,0,2.527,3.169.1.1,0,0,1,.019.142.1.1,0,0,1-.142.019" transform="translate(185.404 57.474)"/>
        <path id="Path_28917" data-name="Path 28917" d="M495.4,170.269a66.914,66.914,0,0,0,6.029,5.345c2.067,1.723,4.237,3.316,6.392,4.933a.1.1,0,0,1,.021.142.1.1,0,0,1-.137.025c-2.271-1.463-4.421-3.1-6.547-4.766a49.256,49.256,0,0,1-5.908-5.543.1.1,0,0,1,.011-.144.1.1,0,0,1,.14.007" transform="translate(183.018 62.914)"/>
        <path id="Path_28918" data-name="Path 28918" d="M507.826,178.93c2.9-.918,5.84-1.716,8.76-2.573,2.94-.783,5.862-1.628,8.821-2.357h.007a.1.1,0,0,1,.123.074.1.1,0,0,1-.068.122c-2.9.915-5.843,1.715-8.764,2.575-2.945.786-5.871,1.631-8.828,2.358a.1.1,0,0,1-.123-.075.106.106,0,0,1,.073-.122" transform="translate(187.647 64.302)"/>
        <path id="Path_28919" data-name="Path 28919" d="M501.2,178.886a9.453,9.453,0,0,0,4.027,2.8,8.1,8.1,0,0,0,4.872.17.1.1,0,0,1,.06.194,7.637,7.637,0,0,1-5.073.042,8.655,8.655,0,0,1-4.044-3.08.1.1,0,0,1,.025-.141.1.1,0,0,1,.134.015" transform="translate(185.159 66.098)"/>
        <path id="Path_28920" data-name="Path 28920" d="M493.075,159.549s1.046-6.3,9.119-5.445c6.468.685,7.481,4.594,7.3,8.721-.132,3.079-2.767,7.481-7.733,7.252s-10.091-3.418-8.689-10.528" transform="translate(182.137 56.922)" fill="#fff"/>
        <path id="Path_28921" data-name="Path 28921" d="M505.861,163.987a6.636,6.636,0,1,1-3.442-8.731,6.636,6.636,0,0,1,3.442,8.731" transform="translate(182.245 57.173)"/>
        <path id="Path_28922" data-name="Path 28922" d="M492.7,159.919a7.983,7.983,0,0,1,3.391-5.752,8.327,8.327,0,0,1,3.273-1.233,12.274,12.274,0,0,1,3.427.064,8.564,8.564,0,0,1,5.621,3.854,9.663,9.663,0,0,1,1.572,6.427.436.436,0,0,1-.867-.029v-.008a10.111,10.111,0,0,0-2.023-5.466,7.524,7.524,0,0,0-4.626-2.969,8.473,8.473,0,0,0-5.518.733,7.854,7.854,0,0,0-3.392,4.51l-.014.048a.433.433,0,0,1-.844-.179" transform="translate(182.083 56.486)"/>
        <path id="Path_28923" data-name="Path 28923" d="M531.148,164.6s1.044-6.3-6.872-8.1c-6.344-1.444-8.563,1.927-9.729,5.893-.87,2.956.2,7.972,4.976,9.361s10.655.025,11.626-7.156" transform="translate(190.057 57.711)" fill="#fff"/>
        <path id="Path_28924" data-name="Path 28924" d="M514.839,164.163a6.637,6.637,0,1,0,6.079-7.15,6.636,6.636,0,0,0-6.079,7.15" transform="translate(190.258 58.018)"/>
        <path id="Path_28925" data-name="Path 28925" d="M504.823,164.076a3.659,3.659,0,1,1-1.9-4.813,3.66,3.66,0,0,1,1.9,4.813" transform="translate(183.972 58.746)" fill="#fff"/>
        <path id="Path_28926" data-name="Path 28926" d="M519.179,165.293a3.658,3.658,0,1,0,3.351-3.942,3.657,3.657,0,0,0-3.351,3.942" transform="translate(191.866 59.625)" fill="#fff"/>
        <path id="Path_28927" data-name="Path 28927" d="M530.757,165.035a14.677,14.677,0,0,0-2.443-5.4,6.477,6.477,0,0,0-4.715-2.624,7.284,7.284,0,0,0-5.356,1.074A10.61,10.61,0,0,0,515,162.906a.436.436,0,0,1-.833-.245,9.981,9.981,0,0,1,3.075-5.836,7.163,7.163,0,0,1,3.159-1.531,10.376,10.376,0,0,1,3.417-.1,8.182,8.182,0,0,1,3.32,1.072,7.706,7.706,0,0,1,2.484,2.425,12.519,12.519,0,0,1,1.994,6.255.434.434,0,0,1-.853.131Z" transform="translate(190.016 57.319)"/>
        <path id="Path_28928" data-name="Path 28928" d="M497.554,151.262a7.867,7.867,0,0,1,4.576-.015,8.788,8.788,0,0,1,3.82,2.525.1.1,0,0,1-.01.145.105.105,0,0,1-.136,0,9.82,9.82,0,0,0-3.8-2.258,8.7,8.7,0,0,0-4.4-.2.1.1,0,0,1-.119-.082.1.1,0,0,1,.07-.115" transform="translate(183.852 55.773)"/>
        <path id="Path_28929" data-name="Path 28929" d="M515.947,153.831a9.4,9.4,0,0,1,9.42,0,.1.1,0,0,1,.038.14.1.1,0,0,1-.129.042,10.994,10.994,0,0,0-9.239,0,.1.1,0,0,1-.133-.053.1.1,0,0,1,.042-.129" transform="translate(190.657 56.383)"/>
        <path id="Path_28930" data-name="Path 28930" d="M506.256,172.221a5.941,5.941,0,0,1,2.308-.378,5.738,5.738,0,0,1,2.261.6.1.1,0,0,1,.04.14.1.1,0,0,1-.116.049,8.434,8.434,0,0,0-2.2-.355,9.22,9.22,0,0,0-2.232.144.1.1,0,0,1-.056-.2" transform="translate(187.071 63.507)"/>
        <path id="Path_28931" data-name="Path 28931" d="M495.959,149.928c-1.405-2.209,6.6-6.449,10.95-5.7s7.648,7.2,5.548,9.449-7.5-4.05-9-4.2-6.449,2.1-7.5.449" transform="translate(183.229 53.27)"/>
        <path id="Path_28932" data-name="Path 28932" d="M530.926,153.453c1.93-1.868-5.785-7.727-10.574-7.916s-9.568,5.436-7.767,8.09,8.794-2.38,10.425-2.208,6.473,3.429,7.916,2.034" transform="translate(189.29 53.784)"/>
        <path id="Path_28933" data-name="Path 28933" d="M503.289,165.772a3.951,3.951,0,0,1,1.305-.115,5.527,5.527,0,0,1,1.271.219,5.156,5.156,0,0,1,2.236,1.27.331.331,0,0,1-.007.468.327.327,0,0,1-.279.09H507.8a21.258,21.258,0,0,1-2.309-.544c-.371-.114-.744-.214-1.113-.345s-.744-.242-1.126-.412l-.011,0a.334.334,0,0,1-.168-.441.338.338,0,0,1,.212-.185" transform="translate(185.909 61.218)" fill="#fff"/>
        <path id="Path_28934" data-name="Path 28934" d="M471.014,124.612A13.833,13.833,0,0,1,469.07,119a17.092,17.092,0,0,1,.394-5.963,22.329,22.329,0,0,1,5.826-10.174.316.316,0,0,1,.475.414,28.116,28.116,0,0,0-5,10.077,17.4,17.4,0,0,0-.519,5.536,16.5,16.5,0,0,0,1.33,5.43.316.316,0,0,1-.559.293" transform="translate(173.312 37.98)" fill="#fff"/>
        <path id="Path_28935" data-name="Path 28935" d="M459.267,140.825a10.9,10.9,0,0,1,.585-6.2,21.289,21.289,0,0,1,3.021-5.354.318.318,0,0,1,.548.311c-.757,1.887-1.654,3.666-2.316,5.5a21.905,21.905,0,0,0-.833,2.783,17.7,17.7,0,0,0-.378,2.894.319.319,0,0,1-.331.305.325.325,0,0,1-.3-.245" transform="translate(169.646 47.728)" fill="#fff"/>
        <path id="Path_28936" data-name="Path 28936" d="M499.636,92.4c1.56.913,3.064,1.916,4.535,2.971s2.88,2.2,4.255,3.39a35.238,35.238,0,0,1,7.037,8.3.316.316,0,0,1-.519.357,61.859,61.859,0,0,0-7.4-7.664c-1.316-1.2-2.7-2.323-4.085-3.453l-4.181-3.388a.316.316,0,0,1,.362-.516" transform="translate(184.471 34.132)" fill="#fff"/>
        <path id="Path_28937" data-name="Path 28937" d="M390.985,179.821s-11.367,3.343-11.7-2.341,23.069-7.69,32.765-4.011-21.064,6.352-21.064,6.352" transform="translate(140.169 63.421)" fill="#d64625"/>
        <path id="Path_28938" data-name="Path 28938" d="M401.009,176.761s8.358-11.033,16.381-9.361,10.365,11.367,10.365,11.367Z" transform="translate(148.199 61.801)" fill="#d64625"/>
        <path id="Path_28939" data-name="Path 28939" d="M378.553,183.737c-.556-5.015,44.13-15.268,53.491-11.256s4.681,6.352,6.686,16.717,6.132,55.61,9.139,55.61,40.677-32.875,51.709-31.2,2.676,35.663,1.339,38.337-68.093,30.982-73.109,28.976-5.8-90.716-7.133-92.721-7.689-3.677-14.376-2.675-20.921,6.059-22.176,3.343c-2.005-4.346,19.939-7.641,17.385-8.916-.892-.445-22.327,9.477-22.957,3.79" transform="translate(139.898 63.406)" fill="#e85f3a"/>
        <path id="Path_28940" data-name="Path 28940" d="M436.419,224.437c.619-1.552,33.432-26.412,46.138-23.069s1,39.786-5.015,42.795-33.1,16.381-34.1,15.379-7.69-33.434-7.02-35.1" transform="translate(161.268 74.305)" fill="#ffa90d"/>
        <path id="Path_28941" data-name="Path 28941" d="M440.933,216.436c.842,5.618,1.774,11.228,2.919,16.794,1.057,5.584,2.375,11.113,3.765,16.624a.106.106,0,0,1-.075.129.108.108,0,0,1-.129-.073c-1.586-5.466-2.858-11.018-4-16.592-1.068-5.589-2.05-11.2-2.69-16.855a.105.105,0,0,1,.093-.118.108.108,0,0,1,.116.092" transform="translate(162.875 79.953)"/>
        <path id="Path_28942" data-name="Path 28942" d="M573.375,225.533c-1.411-2.528-28.566-23.557-32.742-18.523-4.5,2.769-9.172,5.651-15.786,4.726-6.893-1.124-12.808-5.067-13.785-11.033.362-4.11-41.349-1.354-43.348.6-2.754,2.693-3.1,12.789,1.033,43.076.964,7.075,8.9,52.071,8.208,53.754-.441,1.081-21.062,15.377-21.508,17.161,23.437,20.474,63.412,29.644,97.736,18.947-4.013-9.806-11.54-25.215-12.036-27.639-.689-3.364,34.291-77.365,32.227-81.067" transform="translate(168.317 73.385)" fill="#ffc332"/>
        <path id="Path_28943" data-name="Path 28943" d="M476.008,264.895c.718,4.888,1.124,8.286.946,8.726-.442,1.081-21.062,15.376-21.508,17.161,23.437,20.472,63.412,29.643,97.736,18.945-4.013-9.806-11.541-25.214-12.036-27.638-.129-.626.975-3.692,2.845-8.291-23.281,5.462-49.306,4.951-67.984-8.9" transform="translate(168.317 97.896)" fill="#ffa90d"/>
        <path id="Path_28944" data-name="Path 28944" d="M494.372,205.641a30.822,30.822,0,0,0,11.08,8.619,25.827,25.827,0,0,0,13.787,2.264.107.107,0,0,1,.116.093.106.106,0,0,1-.089.116,25.075,25.075,0,0,1-14-2.067,29.5,29.5,0,0,1-11.059-8.894.106.106,0,0,1,.166-.132" transform="translate(182.634 75.984)"/>
        <path id="Path_28945" data-name="Path 28945" d="M479.651,242.546c6.952.456,13.733,2.2,20.389,4.137,6.644,2.027,13.194,4.32,19.755,6.566a.1.1,0,0,1,.066.134.106.106,0,0,1-.132.067c-6.629-2.056-13.163-4.395-19.816-6.34a104.539,104.539,0,0,0-20.279-4.354.1.1,0,0,1-.095-.115.106.106,0,0,1,.112-.1" transform="translate(177.221 89.636)"/>
        <path id="Path_28946" data-name="Path 28946" d="M509.471,211.646c6.425.92,10.959-1.943,15.334-4.694-6.291-2.883-11.865-5.018-14.834-5.336-2.557-.274-7.711-.623-13.89-.93.948,5.926,6.693,9.844,13.39,10.959" transform="translate(183.334 74.167)" fill="#d64625"/>
        <path id="Path_28947" data-name="Path 28947" d="M554.688,358.094c.288-1.474,3.647-77.813.425-104.847-.01-.086-.019-.168-.03-.253-.051-.411-.1-.811-.156-1.2-.015-.123-.033-.248-.052-.368-.048-.349-.1-.688-.153-1.016-.019-.116-.038-.238-.056-.351-.071-.425-.144-.833-.221-1.216-4.318-21.772-6.733-34.034-18.693-32.811s-11.1,18.751-9.525,34.162c.008.082.022.192.036.322,0,.026.007.059.01.085.014.118.029.245.048.4a.288.288,0,0,1,0,.036c.021.173.044.363.07.574,0,.022.007.049.01.073.229,1.841.653,5.11,1.211,9.39.01.059.016.119.025.181.025.185.048.368.074.556.334,2.572.715,5.473,1.127,8.637h0c3.946,30.18,10.861,83.357,10.076,85.684-1.071,3.175-13.677,14.935-10.039,20.946s8.876-9.591,10.821-6.473,4.563,30.322,7.383,30.645.145-18.6,2.373-18.626,7.628,18.217,10.184,17.751-5.3-19.067-4.05-19.6,9.687,14.735,12.367,13.646-8.526-16.081-7.483-16.8,10.3,9.772,12.481,7.505-18.571-25.466-18.266-27.027" transform="translate(194.142 79.808)" fill="#e85f3a"/>
        <path id="Path_28948" data-name="Path 28948" d="M556.5,291.822c.025-15.258-.32-29.622-1.387-38.577-.01-.086-.019-.168-.03-.253-.051-.411-.1-.809-.155-1.2-.016-.123-.034-.247-.053-.368-.048-.349-.1-.687-.153-1.016-.019-.116-.038-.238-.056-.351-.071-.425-.144-.831-.221-1.216-4.318-21.772-6.733-34.034-18.693-32.809s-11.1,18.749-9.525,34.161c.008.082.022.193.036.323,0,.025.007.059.01.085.014.118.029.245.048.4a.346.346,0,0,1,0,.037c.021.171.044.362.07.572,0,.023.007.049.01.073.229,1.841.653,5.111,1.211,9.39.01.06.016.121.025.182.025.185.048.367.074.555.334,2.573.715,5.473,1.127,8.636h0c.855,6.529,1.846,14.137,2.869,22.071,8.263.76,16.527.034,24.791-.693" transform="translate(194.142 79.808)" fill="#d64625"/>
        <path id="Path_28949" data-name="Path 28949" d="M528.5,276.048c0-2.435-14.709-60.514,7.69-60.848s20.728,51.486,21.4,53.828-29.088,9.027-29.088,7.02" transform="translate(193.561 79.53)" fill="#ffa90d"/>
        <path id="Path_28950" data-name="Path 28950" d="M527.907,257.294c4.439-.663,8.879-1.342,13.271-2.258q3.3-.637,6.553-1.5a31.666,31.666,0,0,0,6.293-2.275.105.105,0,0,1,.144.038.11.11,0,0,1-.038.145,27.258,27.258,0,0,1-6.3,2.446c-2.169.605-4.359,1.127-6.564,1.579-4.42.841-8.86,1.57-13.334,2.03a.106.106,0,0,1-.116-.093.108.108,0,0,1,.092-.116" transform="translate(195.062 92.853)"/>
        <path id="Path_28951" data-name="Path 28951" d="M147.546,152.077c2.675,2.006,21.732,24.406,23.739,23.4s21.731-55.833,22.065-60.514S182.317,81.2,185.326,77.186s14.042-1.671,18.055-5.684,11.366-12.37,14.041-11.032,6.019,9.025,2.675,12.7-15.713,8.358-15.713,8.358,3.009,7.355,4.011,7.69,17.719-10.031,17.719-10.031l.334,39.116s-15.713,3.679-16.381,6.353-6.686,84.586-26.078,90.938-54.273-30.536-54.273-30.536Z" transform="translate(47.938 22.295)" fill="#ffcbab"/>
        <path id="Path_28952" data-name="Path 28952" d="M147.546,127.319l-17.83,32.987s15.734,16.627,31.942,25.63a230.257,230.257,0,0,0,7.367-36.456c-5.623-4.632-19.248-20.487-21.479-22.161" transform="translate(47.938 47.053)" fill="#ffaf84"/>
        <path id="Path_28953" data-name="Path 28953" d="M211.579,118.309l-.334-39.116s-16.717,10.363-17.719,10.029-4.013-7.69-4.013-7.69,12.371-4.68,15.714-8.357,0-11.367-2.675-12.705S192.523,67.491,188.511,71.5s-15.045,1.672-18.054,5.684,8.358,33.1,8.024,37.779c-.105,1.475-2.139,7.937-4.936,16.123,5.886,8.176,12.008,16.184,17.858,24.308,2.43-16.249,3.529-29.68,3.794-30.736.668-2.673,16.383-6.352,16.383-6.352" transform="translate(62.807 22.295)" fill="#ffaf84"/>
        <path id="Path_28954" data-name="Path 28954" d="M126.122,97.538c1.993-.315,23.4,34.1,27.415,39.005s-22.735,45.023-24.963,41.9-6.688-80.24-2.452-80.908" transform="translate(45.96 36.046)" fill="#cd2121"/>
        <path id="Path_28955" data-name="Path 28955" d="M126.547,157.679c1.9-2.513,3.732-5.081,5.528-7.671q2.671-3.9,5.073-7.968a73.227,73.227,0,0,0,4.377-8.346,24.183,24.183,0,0,0,2.376-9.017v-.007a.147.147,0,0,1,.294,0A22.474,22.474,0,0,1,142,133.9a73.8,73.8,0,0,1-4.313,8.463,134.425,134.425,0,0,1-10.907,15.506.148.148,0,0,1-.208.021.151.151,0,0,1-.022-.205" transform="translate(46.756 46.02)"/>
        <path id="Path_28956" data-name="Path 28956" d="M191.552,88.575c-.668-.668-6.018-11.812-5.35-13.374s11.367-6.909,13.374-6.463,6.241,13.372,6.241,13.372Z" transform="translate(68.793 25.393)" fill="#0075c4"/>
        <path id="Path_28957" data-name="Path 28957" d="M188.351,86.12c.071-.326.234-.377.362-.52.133-.127.277-.22.416-.331.285-.2.575-.393.868-.577.586-.368,1.185-.711,1.786-1.049,1.2-.672,2.424-1.312,3.653-1.937,2.458-1.244,4.939-2.438,7.475-3.528.637-.27,1.272-.534,1.934-.766.166-.058.333-.114.508-.162a1.291,1.291,0,0,1,.649-.063,2.354,2.354,0,0,1,.849.829,33.384,33.384,0,0,1,2.117,3.586q.966,1.835,1.828,3.717c.288.629.566,1.263.827,1.906a8.491,8.491,0,0,1,.642,2.08.539.539,0,0,1-.045.268c-.047.125-.105.138-.164.207-.1.082-.167.119-.251.177l-.46.268-.918.493-1.849.931-3.729,1.78c-2.5,1.16-5.009,2.291-7.56,3.338-.64.26-1.282.514-1.935.748-.326.118-.656.227-1,.325a3.475,3.475,0,0,1-.553.108c-.331.027-.47-.23-.594-.356a26,26,0,0,1-1.924-3.7q-.848-1.886-1.613-3.806a24.092,24.092,0,0,1-1.322-3.965m.315,0a25.466,25.466,0,0,0,1.339,3.831q.783,1.9,1.648,3.773a26.059,26.059,0,0,0,1.909,3.594c.094.11.178.215.218.181a3.128,3.128,0,0,0,.456-.1c.319-.1.641-.2.96-.323.64-.237,1.275-.5,1.906-.761,2.527-1.067,5.022-2.224,7.5-3.406l3.7-1.815,1.826-.944.894-.492.429-.257.171-.119c-.01,0,.034-.019,0,.014-.022.048-.01.06-.016.015a9.793,9.793,0,0,0-.582-1.845c-.249-.634-.518-1.264-.8-1.889q-.836-1.876-1.774-3.706a32.66,32.66,0,0,0-2.037-3.539,2.573,2.573,0,0,0-.567-.64,3.32,3.32,0,0,0-.835.208c-.641.215-1.276.472-1.911.733-2.53,1.055-5.021,2.221-7.485,3.434-1.231.609-2.454,1.234-3.66,1.89-.6.33-1.2.664-1.782,1.022-.292.178-.578.362-.856.555a2.732,2.732,0,0,0-.653.586" transform="translate(69.608 28.518)"/>
        <path id="Path_28958" data-name="Path 28958" d="M192.535,91.837s14.041,50.149,17.162,58.842,34.769-6.463,30.758-16.047-32.1-48.813-32.1-48.813Z" transform="translate(71.154 31.716)" fill="#0075c4"/>
        <path id="Path_28959" data-name="Path 28959" d="M194,90.928s13.887,49.4,16.717,57.283,29.936-6.282,26.3-14.968S205.59,86.47,205.59,86.47Z" transform="translate(71.695 31.956)" fill="#72eeee"/>
        <path id="Path_28960" data-name="Path 28960" d="M193.992,71.7c2.508-1.337,5.851,7.524,4.011,8.36s-6.92-6.807-4.011-8.36" transform="translate(71.368 26.446)"/>
        <path id="Path_28961" data-name="Path 28961" d="M197.743,89.495s17.385,39.228,18.054,40.788,1.783.67,2.675.446,1.113-.446-.223-3.121-18.054-39.674-18.054-39.674Z" transform="translate(73.079 32.498)" fill="#fff"/>
        <path id="Path_28962" data-name="Path 28962" d="M206.144,72c-2.309-.29,15.375-22.14,21.138-17.15S206.844,72.089,206.144,72" transform="translate(76.107 19.998)" fill="#72eeee"/>
        <path id="Path_28963" data-name="Path 28963" d="M207.582,74.322c-.315-.834,24.806-14.7,25.4-3.679s-24.445,6.215-25.4,3.679" transform="translate(76.714 24.542)" fill="#72eeee"/>
        <path id="Path_28964" data-name="Path 28964" d="M188.821,85.836c.657-3.79,19.312-13.134,22.733-12.036,6.242,2.006,13.819,26.748,12.259,30.758s-20.282,9.14-25.633,8.249-10.254-21.845-9.36-26.971" transform="translate(69.742 27.241)" fill="#ffcbab"/>
        <path id="Path_28965" data-name="Path 28965" d="M177.239,82.056a22.423,22.423,0,0,0,2.364-1.078c.775-.4,1.546-.8,2.3-1.238a43.1,43.1,0,0,0,4.415-2.782.143.143,0,0,1,.186.216,21.34,21.34,0,0,1-4.306,3.092,19.636,19.636,0,0,1-4.889,2.065.143.143,0,0,1-.081-.274Z" transform="translate(65.463 28.431)"/>
        <path id="Path_28966" data-name="Path 28966" d="M191.057,88.214l5.124-2.145,5.139-2.123c3.465-1.313,6.908-2.7,10.472-3.758a.142.142,0,0,1,.178.1.144.144,0,0,1-.088.175c-3.461,1.307-6.918,2.63-10.339,4.047-3.464,1.315-6.87,2.773-10.384,3.974a.143.143,0,0,1-.1-.267" transform="translate(70.575 29.633)"/>
        <path id="Path_28967" data-name="Path 28967" d="M192.516,95.232c3.85-1.771,7.811-3.284,11.773-4.785,4-1.4,8-2.787,12.089-3.913a.145.145,0,0,1,.177.1.143.143,0,0,1-.092.173c-4,1.385-8.013,2.708-11.967,4.207-3.992,1.4-7.917,2.968-11.869,4.481a.143.143,0,0,1-.111-.263" transform="translate(71.117 31.978)"/>
        <path id="Path_28968" data-name="Path 28968" d="M193.352,99.1c4.069-1.138,8.093-2.42,12.1-3.779,4.039-1.255,8.056-2.624,12.19-3.576a.143.143,0,0,1,.073.277q-6.073,1.816-12.077,3.873c-4.039,1.255-8.065,2.609-12.221,3.483a.143.143,0,0,1-.17-.111.145.145,0,0,1,.1-.167" transform="translate(71.417 33.903)"/>
        <path id="Path_28969" data-name="Path 28969" d="M80.03,398.042s-12.37,21.4-9.7,21.4h50.818c4.347,0-13.372-3.01-17.719-8.024s-8.024-13.04-8.024-13.04Z" transform="translate(25.853 147.102)" fill="#00365b"/>
        <path id="Path_28970" data-name="Path 28970" d="M109.564,395.357s13.372,7.02,18.386,8.024S165.4,409.4,165.4,411.07s-69.208.67-72.885.67,2.675-14.378,2.675-14.378Z" transform="translate(33.766 146.11)" fill="#00365b"/>
        <path id="Path_28971" data-name="Path 28971" d="M59.736,241.32c.668,2.675,10.7,67.536,12.036,103.643s10.7,113.673,10.7,117.016,17.385,3.343,18.054.67,4.681-90.939,5.35-125.71-.668-65.53,2.006-66.865,8.693-6.688,10.031-4.013-3.344,113-5.351,131.058-7.355,62.186-7.355,64.86,16.049,2.008,18.054-3.343,22.066-95.618,30.758-143.762a559.354,559.354,0,0,0,8.694-88.933Z" transform="translate(22.076 83.5)" fill="#0088f7"/>
        <path id="Path_28972" data-name="Path 28972" d="M68.56,313.762c1.5,36.615,10.648,112.458,10.648,115.762,0,3.343,17.385,3.343,18.055.668.579-2.317,3.665-68.841,4.917-109.2-11.439-.04-22.646-3.023-33.62-7.229" transform="translate(25.337 115.955)" fill="#0075c4"/>
        <path id="Path_28973" data-name="Path 28973" d="M103.012,323.052c-.986,20.4-2.017,38.068-2.721,44.4-2.005,18.054-7.355,62.185-7.355,64.86s16.049,2.006,18.054-3.343c1.742-4.641,17.074-73.222,26.78-122.74A84.215,84.215,0,0,1,113,320.642a60.754,60.754,0,0,1-9.984,2.41" transform="translate(34.346 113.17)" fill="#0075c4"/>
        <path id="Path_28974" data-name="Path 28974" d="M90.383,238.521c5.067.163,10.113.618,15.168.688,2.524.085,5.051.1,7.572,0a72.291,72.291,0,0,0,7.534-.689.157.157,0,0,1,.056.31,70.3,70.3,0,0,1-15.18,1.041c-5.074-.189-10.128-.57-15.169-1.038a.158.158,0,0,1,.019-.315" transform="translate(33.342 88.149)"/>
        <path id="Path_28975" data-name="Path 28975" d="M102.67,256.466c4.027-2.215,8.141-4.253,12.148-6.485,4.065-2.13,8.023-4.441,11.907-6.878a.157.157,0,0,1,.177.26,118.885,118.885,0,0,1-11.766,7.2c-4.074,2.134-8.158,4.237-12.323,6.179a.157.157,0,0,1-.142-.281" transform="translate(37.913 89.834)"/>
        <path id="Path_28976" data-name="Path 28976" d="M25.4,125.907c3.221-4.88,46.471-15.379,48.477-15.714,0,0-.668-6.016,4.681-8.691s26.078-6.352,31.092-7.356,6.688,6.018,8.024,6.018,43.8-6.686,45.135-1.337,2.005,76,3.344,83.582,13.374,91.831,12.926,94.505-24.071,10.7-46.8,15.157-60.181,2.227-61.518.445-12.036-75.782-12.929-81.132S21.5,131.814,25.4,125.907" transform="translate(9.275 34.757)" fill="#ff4747"/>
        <path id="Path_28977" data-name="Path 28977" d="M51,199.175c3.525,23.643,9.224,61.524,10.176,62.793,1.338,1.782,38.782,4.011,61.517-.445s46.361-12.481,46.808-15.157c.305-1.835-5.273-42.132-9.234-69.662C137.184,206.692,89.059,204.352,51,199.175" transform="translate(18.849 65.304)" fill="#cd2121"/>
        <path id="Path_28978" data-name="Path 28978" d="M60.333,127.227c4.535,2.308,9.113,4.532,13.705,6.723s9.238,4.27,13.919,6.258c4.665,2.026,9.383,3.936,14.178,5.622a94.955,94.955,0,0,0,14.653,4.116.149.149,0,0,1,.123.17.152.152,0,0,1-.168.123,83.764,83.764,0,0,1-14.778-3.924c-4.824-1.656-9.565-3.538-14.253-5.533q-7.022-3.026-13.9-6.366c-4.592-2.205-9.14-4.5-13.62-6.929a.147.147,0,0,1-.06-.2.151.151,0,0,1,.2-.06" transform="translate(22.217 47.013)"/>
        <path id="Path_28979" data-name="Path 28979" d="M87.283,139.029a62.348,62.348,0,0,0,5.051-3.929,61.375,61.375,0,0,0,4.633-4.418,58.425,58.425,0,0,0,4.235-4.8c1.339-1.665,2.55-3.424,3.751-5.195a.146.146,0,0,1,.2-.047.151.151,0,0,1,.051.2,48.524,48.524,0,0,1-3.6,5.358,54.182,54.182,0,0,1-8.941,9.292,40.991,40.991,0,0,1-5.23,3.787.149.149,0,0,1-.2-.051.154.154,0,0,1,.049-.2" transform="translate(32.232 44.577)"/>
        <path id="Path_28980" data-name="Path 28980" d="M65.2,109.741a31.017,31.017,0,0,0,4.473,1.152,42.285,42.285,0,0,0,4.577.642,35.771,35.771,0,0,0,9.2-.456,37.127,37.127,0,0,0,4.484-1.056,33.772,33.772,0,0,0,4.254-1.772,36.275,36.275,0,0,0,7.633-5.167l.008-.007a.148.148,0,0,1,.193.223,32.118,32.118,0,0,1-7.6,5.411,34.218,34.218,0,0,1-4.307,1.852,37.547,37.547,0,0,1-4.554,1.131,35.976,35.976,0,0,1-9.346.355,34.573,34.573,0,0,1-9.114-2.032.148.148,0,0,1,.1-.278Z" transform="translate(24.021 38.081)"/>
        <path id="Path_28981" data-name="Path 28981" d="M60.442,235.966c8.81.629,17.619,1.287,26.441,1.583a177.9,177.9,0,0,0,26.415-.881,103.064,103.064,0,0,0,25.619-6.169,99.978,99.978,0,0,0,23.055-12.779.158.158,0,1,1,.189.252,95.442,95.442,0,0,1-23.044,13.038,103.661,103.661,0,0,1-25.741,6.319,177.46,177.46,0,0,1-26.512.77c-8.838-.31-17.647-1.052-26.446-1.819a.158.158,0,0,1,.025-.315" transform="translate(22.275 80.45)"/>
        <path id="Path_28982" data-name="Path 28982" d="M27.513,50.791s7.578,29.867,20.06,45.47,73.552-9.362,69.541-29.867S107.753,36.526,97.5,31.178,27.513,50.791,27.513,50.791" transform="translate(10.168 11.244)" fill="#ffaf84"/>
        <path id="Path_28983" data-name="Path 28983" d="M34.162,61.174s-11.284-7.73-12.537,3.346,2.508,25.492,12.327,24.029S44.82,81.027,44.82,81.027Z" transform="translate(7.906 21.638)" fill="#ffaf84"/>
        <path id="Path_28984" data-name="Path 28984" d="M24.409,60.848c2.387,2.22,4.728,4.487,7,6.826,1.142,1.163,2.271,2.342,3.373,3.547a23.42,23.42,0,0,1,3.091,3.9,1.445,1.445,0,0,1,.2.727.594.594,0,0,1-.363.526.97.97,0,0,1-.457.045,6.506,6.506,0,0,1-1.245-.356,17.6,17.6,0,0,0-2.284-.734,2.181,2.181,0,0,0-2.031.29,2.128,2.128,0,0,0-.337,2.009,3.109,3.109,0,0,0,1.522,1.568,10.951,10.951,0,0,0,2.234.8,23.192,23.192,0,0,0,4.785.642.158.158,0,0,1,.159.157.163.163,0,0,1-.159.158,23.606,23.606,0,0,1-4.9-.485,11.055,11.055,0,0,1-2.362-.818,3.622,3.622,0,0,1-1.8-1.845,2.664,2.664,0,0,1,.434-2.59,2.727,2.727,0,0,1,2.575-.486,18.127,18.127,0,0,1,2.373.727,6.065,6.065,0,0,0,1.1.31.651.651,0,0,0,.144,0c-.014,0-.07.073-.048.048a.993.993,0,0,0-.155-.422,24.172,24.172,0,0,0-2.938-3.761c-1.081-1.211-2.19-2.4-3.314-3.573q-3.386-3.513-6.825-6.982a.158.158,0,0,1,.219-.227" transform="translate(8.922 22.472)"/>
        <path id="Path_28985" data-name="Path 28985" d="M86.284,44.244S89.35,30.988,97.719,38.26s15.313,20.368,7.133,25.9-13.025,1.8-13.025,1.8Z" transform="translate(31.888 13.334)" fill="#ffaf84"/>
        <path id="Path_28986" data-name="Path 28986" d="M93.347,37.315c-.116,3.253-.226,6.507-.305,9.758-.034,1.626-.048,3.251-.025,4.874a24.314,24.314,0,0,0,.378,4.756,1,1,0,0,0,.173.416c.032,0-.058-.012-.068,0a.643.643,0,0,0,.11-.093,6.27,6.27,0,0,0,.6-.972,18.192,18.192,0,0,1,1.255-2.141,2.722,2.722,0,0,1,2.227-1.382,2.66,2.66,0,0,1,2.071,1.613,3.623,3.623,0,0,1-.075,2.573,11.035,11.035,0,0,1-1.187,2.2,23.511,23.511,0,0,1-3.281,3.672.156.156,0,0,1-.222-.01.162.162,0,0,1,.01-.223,23.228,23.228,0,0,0,3.09-3.71,10.852,10.852,0,0,0,1.1-2.1,3.109,3.109,0,0,0,.06-2.183,2.127,2.127,0,0,0-1.608-1.253c-.663-.048-1.253.537-1.693,1.16a17.914,17.914,0,0,0-1.186,2.084,6.4,6.4,0,0,1-.675,1.1.971.971,0,0,1-.368.277.593.593,0,0,1-.623-.141,1.438,1.438,0,0,1-.341-.675,23.349,23.349,0,0,1-.357-4.961c0-1.634.03-3.265.085-4.895.093-3.26.284-6.512.541-9.762a.158.158,0,0,1,.315.019" transform="translate(34.15 13.73)"/>
        <path id="Path_28987" data-name="Path 28987" d="M62.91,94.575s3.406,14.127,4.347,15.379,6.018,2.006,17.339-.226c9.136-1.8,12.06-4.915,11.747-6.8s-3.916-16.381-3.916-16.381Z" transform="translate(23.249 31.986)" fill="#ffaf84"/>
        <path id="Path_28988" data-name="Path 28988" d="M33.241,74.253c.41-1.874,10.921,2.9,15.825,6.686s7.578,4.459,9.361,4.013,22.735-4.458,24.295-3.566,9.138-6.016,12.036-8.023,8.024-4.458,8.246-5.35,5.128-21.842,7.579-22.066,12.7,35.662,12.927,43.685-3.566,5.35-3.566,6.909S111.03,109.249,93.2,115.71s-37.89,1.786-39.452,1.338-2.006,2.23-4.9,0-17.162-35.662-15.6-42.795" transform="translate(12.241 16.98)" fill="#d34a13"/>
        <path id="Path_28989" data-name="Path 28989" d="M45.74,57.224c-.148,1.1,9.361-4.457,11.814-4.457s6.463.222,6.909-.446-5.35-7.356-8.024-6.686-10.253,8.246-10.7,11.589" transform="translate(16.903 16.848)" fill="#b23104"/>
        <path id="Path_28990" data-name="Path 28990" d="M46.9,67.6s-1.689-6.752,6.752-9.4c6.766-2.127,9.476,1.341,11.092,5.545,1.205,3.135.482,8.683-4.581,10.611S48.589,75.322,46.9,67.6" transform="translate(17.282 21.27)" fill="#fff"/>
        <path id="Path_28991" data-name="Path 28991" d="M62.565,65.788a7.235,7.235,0,1,1-7.235-7.235,7.235,7.235,0,0,1,7.235,7.235" transform="translate(17.775 21.639)" fill="#00871d"/>
        <path id="Path_28992" data-name="Path 28992" d="M50.865,55.152a7.66,7.66,0,0,1,4.411-2.338,8.568,8.568,0,0,1,2.538-.071,6.358,6.358,0,0,1,2.394.811.177.177,0,0,1,.063.241.181.181,0,0,1-.216.074,8.708,8.708,0,0,0-4.643-.326,10.379,10.379,0,0,0-2.261.667,7.931,7.931,0,0,0-2.03,1.182l-.01.007a.175.175,0,0,1-.247-.247" transform="translate(18.783 19.468)"/>
        <path id="Path_28993" data-name="Path 28993" d="M46.541,68.291a8.7,8.7,0,0,1,.957-7.537,9.711,9.711,0,0,1,2.9-2.736A14.467,14.467,0,0,1,53.96,56.54a10.629,10.629,0,0,1,3.921-.349,7.878,7.878,0,0,1,3.807,1.46,11.14,11.14,0,0,1,3.9,6.4.634.634,0,0,1-.451.775.641.641,0,0,1-.726-.323A12.173,12.173,0,0,0,60.372,59.6a7.133,7.133,0,0,0-5.738-.479,9.842,9.842,0,0,0-5.218,3.021,8.426,8.426,0,0,0-1.654,5.826l.005.073a.63.63,0,0,1-1.226.247" transform="translate(17.033 20.745)"/>
        <path id="Path_28994" data-name="Path 28994" d="M82.691,46.012c.651.9-9.509,1.318-11.67,2.473s-5.6,3.243-6.3,2.864,1.252-9.009,3.925-9.68,12.08,1.6,14.049,4.343" transform="translate(23.863 15.356)" fill="#b23104"/>
        <path id="Path_28995" data-name="Path 28995" d="M87.071,56.014S85.378,49.262,76.683,50.9c-6.97,1.313-7.724,5.648-7.168,10.12.415,3.334,3.666,7.885,9.042,7.2s10.665-4.6,8.515-12.207" transform="translate(25.636 18.716)" fill="#fff"/>
        <path id="Path_28996" data-name="Path 28996" d="M71.622,62.066a7.235,7.235,0,1,0,2.971-9.791,7.235,7.235,0,0,0-2.971,9.791" transform="translate(26.153 19.003)" fill="#00871d"/>
        <path id="Path_28997" data-name="Path 28997" d="M76.419,48.626a7.973,7.973,0,0,0-2.347-.085,10.351,10.351,0,0,0-2.308.478,8.713,8.713,0,0,0-3.942,2.475.175.175,0,0,1-.248.021.18.18,0,0,1-.036-.225,6.34,6.34,0,0,1,1.73-1.843,8.516,8.516,0,0,1,2.271-1.134,7.656,7.656,0,0,1,4.993-.018.175.175,0,0,1-.1.334Z" transform="translate(24.951 17.695)"/>
        <path id="Path_28998" data-name="Path 28998" d="M86.707,56.708a8.438,8.438,0,0,0-4.2-4.358,9.844,9.844,0,0,0-6.026-.205,7.134,7.134,0,0,0-4.836,3.128,12.167,12.167,0,0,0-1.25,6.218.635.635,0,0,1-.625.645.642.642,0,0,1-.627-.489,11.138,11.138,0,0,1,.42-7.476,7.856,7.856,0,0,1,2.669-3.082,10.6,10.6,0,0,1,3.624-1.541,14.462,14.462,0,0,1,3.84-.377,9.71,9.71,0,0,1,3.844,1.048,8.694,8.694,0,0,1,4.4,6.2.63.63,0,0,1-1.2.362Z" transform="translate(25.387 18.169)"/>
        <path id="Path_28999" data-name="Path 28999" d="M51.513,42.186c0,2.006-1.337,8.248,1.783,8.024s5.126-6.463,5.573-4.681-3.79,6.909,1.113,7.133,11.367-1.115,13.6-9.584c1.363-5.178,1.249-5.585,1.785-5.126,1.56,1.337,1.56,5.35,3.343,2.452s.445-7.8.445-7.8Z" transform="translate(18.932 12.049)" fill="#b23104"/>
        <path id="Path_29000" data-name="Path 29000" d="M64.33,54.266l.551,3.51a24.244,24.244,0,0,0,.69,3.44,10.756,10.756,0,0,0,3.948,5.534,4.174,4.174,0,0,0,1.4.886,9.564,9.564,0,0,0,1.663.423,14.086,14.086,0,0,1,3.513.864,2.08,2.08,0,0,1,1.252,1.463c.026.166.06.334.071.5l-.068.477a2.965,2.965,0,0,1-.257.9,14.2,14.2,0,0,1-1.869,3.077.158.158,0,0,1-.26-.178l.005-.008a13.885,13.885,0,0,0,1.667-3.055,2.727,2.727,0,0,0,.215-.805l.056-.4-.064-.378a1.544,1.544,0,0,0-.989-1.087,13.916,13.916,0,0,0-3.375-.76,10.007,10.007,0,0,1-1.779-.423,3.654,3.654,0,0,1-.871-.418c-.273-.171-.483-.367-.729-.548a11.318,11.318,0,0,1-4.057-5.9,48.081,48.081,0,0,1-1.024-7.059.157.157,0,0,1,.136-.177.159.159,0,0,1,.177.131" transform="translate(23.658 20.006)"/>
        <path id="Path_29001" data-name="Path 29001" d="M58.488,77.567l8.35.357,8.352.311a.159.159,0,0,1,.152.163.161.161,0,0,1-.149.152c-2.793.164-5.588.133-8.382.041-2.791-.13-5.582-.316-8.35-.711a.156.156,0,0,1-.136-.177.16.16,0,0,1,.163-.137" transform="translate(21.554 28.666)"/>
        <path id="Path_29002" data-name="Path 29002" d="M73.532,79.985A26.712,26.712,0,0,0,76.6,77.621q1.459-1.282,2.817-2.68c1.843-1.832,3.568-3.792,5.441-5.623a.157.157,0,0,1,.223,0,.159.159,0,0,1,.01.21c-1.656,2.02-3.365,4-5.2,5.881a25.567,25.567,0,0,1-6.207,4.848.158.158,0,0,1-.156-.274" transform="translate(27.148 25.6)"/>
        <path id="Path_29003" data-name="Path 29003" d="M66.962,71a1.958,1.958,0,0,1,.468-.8,2.016,2.016,0,0,1,.831-.5,2.121,2.121,0,0,1,1.8.342.162.162,0,0,1,.03.227.17.17,0,0,1-.156.062,3.263,3.263,0,0,0-1.486.01,2.725,2.725,0,0,0-1.212.815l-.007.005a.16.16,0,0,1-.227,0,.162.162,0,0,1-.04-.162" transform="translate(24.744 25.732)"/>
        <path id="Path_29004" data-name="Path 29004" d="M28.816,59.6c-.223.668,7.133,18.5,8.693,17.608s.892-22.068-.223-25.856S28.816,59.6,28.816,59.6" transform="translate(10.648 18.706)" fill="#b23104"/>
        <path id="Path_29005" data-name="Path 29005" d="M96.364,61.9c.23,1.56-1.115-1.561-3.79-10.031S83.66,35.379,83.66,35.379s8.468-2.228,12.7,26.524" transform="translate(30.918 13.06)" fill="#b23104"/>
        <path id="Path_29006" data-name="Path 29006" d="M55.886,68.109A3.659,3.659,0,1,1,52.28,64.4a3.661,3.661,0,0,1,3.606,3.712" transform="translate(17.949 23.799)" fill="#fff"/>
        <path id="Path_29007" data-name="Path 29007" d="M71.229,62.889A3.658,3.658,0,1,0,72.8,57.961a3.657,3.657,0,0,0-1.574,4.928" transform="translate(26.173 21.269)" fill="#fff"/>
        <path id="Path_29008" data-name="Path 29008" d="M70.607,82.829a14.779,14.779,0,0,0,4.747-.62,15.144,15.144,0,0,0,4.295-2.124.159.159,0,0,1,.22.04.161.161,0,0,1-.018.2,10.717,10.717,0,0,1-9.28,2.814.158.158,0,0,1-.125-.185.16.16,0,0,1,.16-.129" transform="translate(26.034 29.586)"/>
        <path id="Path_29009" data-name="Path 29009" d="M26.8,61.633S7.857,27.309,52.434,11.484s52.156,23.4,52.156,23.4Z" transform="translate(8.427 2.854)" fill="#cd2121"/>
        <path id="Path_29010" data-name="Path 29010" d="M87.216,11.555C79.374,7.264,68.048,5.716,51.8,11.484c-16.061,5.7-23.874,13.8-27.3,21.838A89.221,89.221,0,0,0,87.216,11.555" transform="translate(9.056 2.854)" fill="#ff4747"/>
        <path id="Path_29011" data-name="Path 29011" d="M24.429,55.536c.505-3.538,16.94-18.5,37.223-26.078s42.229-3.859,43.908-2.675c3.788,2.675,7.578,13.819,6.241,15.6s-17.163-8.691-45.024,3.566S33.79,72.7,31.338,72.475s-7.355-13.818-6.909-16.939" transform="translate(9.017 9.174)" fill="#ff4747"/>
        <path id="Path_29012" data-name="Path 29012" d="M61.191,37.628A60.72,60.72,0,0,1,78.332,33.8,58.4,58.4,0,0,1,95.82,35.4a.147.147,0,0,1-.064.288,63.932,63.932,0,0,0-17.383-1.26,67.214,67.214,0,0,0-17.084,3.483.148.148,0,0,1-.1-.278" transform="translate(22.579 12.454)"/>
        <path id="Path_29013" data-name="Path 29013" d="M25.936,49.765a32.732,32.732,0,0,1-2.372-12.144,29.082,29.082,0,0,1,2.821-12.038.148.148,0,0,1,.271.119,31.508,31.508,0,0,0-2.468,11.925,36.221,36.221,0,0,0,2.026,12.037.148.148,0,0,1-.278.1" transform="translate(8.708 9.424)"/>
        <path id="Path_29014" data-name="Path 29014" d="M16.6,157.264S-3.46,203.18,1,218.336s59.735,36.107,59.735,36.107L73.212,237.5s-39.674-25.855-39.227-33.879,12.036-27.193,12.036-27.193Z" transform="translate(0.129 58.119)" fill="#ffcbab"/>
        <path id="Path_29015" data-name="Path 29015" d="M44.9,176.431,15.482,157.264A317.111,317.111,0,0,0,3.375,190.55c10.38,2.379,20.758,4.533,31.137,6.549,3.3-8.949,10.391-20.668,10.391-20.668" transform="translate(1.247 58.119)" fill="#ffaf84"/>
        <path id="Path_29016" data-name="Path 29016" d="M64.143,220.8s-14.117-9.2-25.414-18.329c-4.722,7.856-9.532,15.651-13.838,23.6,13.85,6.771,26.771,11.669,26.771,11.669Z" transform="translate(9.199 74.825)" fill="#ffaf84"/>
        <path id="Path_29017" data-name="Path 29017" d="M7.706,172.469c.926-1.587,18.723-53.938,23.18-53.938S58.971,173.36,58.08,177.372s-9.139,23.18-11.814,24.071-41.68-23.625-38.56-28.975" transform="translate(2.782 43.805)" fill="#cd2121"/>
        <path id="Path_29018" data-name="Path 29018" d="M14.974,154.363a65.812,65.812,0,0,0,7.194,6.893,70.9,70.9,0,0,0,8.085,5.826,67.823,67.823,0,0,0,8.753,4.758,80.631,80.631,0,0,0,9.327,3.536.148.148,0,0,1,.1.182.155.155,0,0,1-.184.1,63.866,63.866,0,0,1-9.457-3.353,68.253,68.253,0,0,1-8.875-4.7,70.458,70.458,0,0,1-8.085-5.958,53.638,53.638,0,0,1-7.092-7.1.148.148,0,0,1,.225-.192Z" transform="translate(5.436 57.026)"/>
        <path id="Path_29019" data-name="Path 29019" d="M47.93,222.157c6.189-8.417,10.921-12.034,20.283-7.578S85.375,232.188,84.26,237.76s-8.248,14.265-12.7,14.265S40.8,239.1,41.02,236.2s1.338-6.464,6.909-14.042" transform="translate(15.159 78.591)" fill="#ffcbab"/>
        <path id="Path_29020" data-name="Path 29020" d="M48.283,227.637a118.976,118.976,0,0,1,12.551,6.505A67.646,67.646,0,0,1,72.17,242.6a.148.148,0,0,1-.2.218,80.581,80.581,0,0,0-11.459-8.137c-3.988-2.478-8.171-4.626-12.353-6.773a.145.145,0,0,1-.064-.2.148.148,0,0,1,.19-.068" transform="translate(17.767 84.122)"/>
        <path id="Path_29021" data-name="Path 29021" d="M52.2,223.087a107.68,107.68,0,0,1,11.9,7.885,74.758,74.758,0,0,1,10.425,9.751.148.148,0,0,1-.219.2,90.748,90.748,0,0,0-10.588-9.456c-3.714-2.946-7.683-5.547-11.669-8.126a.148.148,0,0,1,.153-.253" transform="translate(19.211 82.438)"/>
        <path id="Path_29022" data-name="Path 29022" d="M56.5,218.38c.16-.042.385.293.607.451l.67.583,1.342,1.161,2.653,2.367c1.761,1.585,3.517,3.177,5.245,4.8,1.7,1.65,3.391,3.317,5.028,5.037a34.483,34.483,0,0,1,4.5,5.537.145.145,0,0,1-.049.2.148.148,0,0,1-.2-.042l-.007-.01a44.506,44.506,0,0,0-4.617-5.332c-1.656-1.686-3.365-3.321-5.088-4.941l-5.165-4.872-2.609-2.408-1.292-1.223-.644-.615-.318-.312a2.469,2.469,0,0,1-.174-.178,1.076,1.076,0,0,1-.167-.3.148.148,0,0,1,.281.095" transform="translate(20.775 80.633)"/>
      </g>
    </g>
  </g>
</svg>
